<?xml version="1.0" encoding="UTF-8"?>
<!DOCTYPE svg PUBLIC "-//W3C//DTD SVG 1.1//EN" "http://www.w3.org/Graphics/SVG/1.1/DTD/svg11.dtd">
<svg xmlns="http://www.w3.org/2000/svg" version="1.1" width="500px" height="500px"
  style="shape-rendering:geometricPrecision; text-rendering:geometricPrecision; image-rendering:optimizeQuality; fill-rule:evenodd; clip-rule:evenodd"
  xmlns:xlink="http://www.w3.org/1999/xlink">
  <g>
    <path style="opacity:1" fill="#1fe0e2"
      d="M 310.5,173.5 C 295.266,161.919 277.933,155.752 258.5,155C 203.887,152.79 151.22,161.79 100.5,182C 82.1531,189.698 65.9864,200.531 52,214.5C 49.1889,218.766 47.6889,223.433 47.5,228.5C 46.3994,227.152 45.3994,225.652 44.5,224C 44.6482,218.811 46.4815,213.978 50,209.5C 66.1182,193.515 84.9515,181.681 106.5,174C 156.883,155.269 208.883,147.603 262.5,151C 276.849,152.339 290.182,156.672 302.5,164C 305.777,166.766 308.443,169.933 310.5,173.5 Z" />
  </g>
  <g>
    <path style="opacity:1" fill="#fbfafd"
      d="M 310.5,173.5 C 312.607,176.057 313.941,179.057 314.5,182.5C 314.5,185.5 314.5,188.5 314.5,191.5C 313.979,196.549 312.312,201.216 309.5,205.5C 309.833,205.833 310.167,206.167 310.5,206.5C 311.518,205.807 312.518,205.141 313.5,204.5C 344.411,182.685 378.411,167.518 415.5,159C 425.885,158.13 436.218,158.464 446.5,160C 453.414,161.763 458.747,165.596 462.5,171.5C 463.612,173.599 464.279,175.933 464.5,178.5C 463.911,182.971 464.577,186.971 466.5,190.5C 472.156,190.317 476.156,192.651 478.5,197.5C 479.195,204.581 477.361,210.914 473,216.5C 465.609,225.726 457.109,233.726 447.5,240.5C 447.855,241.522 448.522,242.189 449.5,242.5C 452.881,244.88 455.547,247.88 457.5,251.5C 458.774,253.993 459.44,256.659 459.5,259.5C 460.945,285.183 449.945,303.017 426.5,313C 418.144,314.924 409.811,314.924 401.5,313C 399.963,311.293 398.296,309.793 396.5,308.5C 395.699,306.958 395.366,305.292 395.5,303.5C 396.163,290.328 401.163,279.161 410.5,270C 412.025,268.991 413.692,268.491 415.5,268.5C 417.481,269.105 417.815,270.105 416.5,271.5C 409.923,279.492 405.923,288.659 404.5,299C 404.497,301.484 405.163,303.651 406.5,305.5C 407.29,306.794 408.29,307.961 409.5,309C 427.866,309.383 440.366,300.883 447,283.5C 449.559,275.486 450.059,267.486 448.5,259.5C 447.699,257.958 447.366,256.292 447.5,254.5C 444.347,246.256 438.347,243.256 429.5,245.5C 428.89,244.609 428.557,243.609 428.5,242.5C 448.271,235.452 462.271,222.285 470.5,203C 470.361,201.699 469.695,200.866 468.5,200.5C 468.5,200.167 468.5,199.833 468.5,199.5C 469.525,199.103 469.692,198.437 469,197.5C 467.758,196.128 466.258,195.128 464.5,194.5C 462.829,197.858 461.162,201.192 459.5,204.5C 458.15,205.95 456.484,206.617 454.5,206.5C 452.255,205.708 451.922,204.375 453.5,202.5C 454.122,201.373 454.955,200.373 456,199.5C 456.667,198.5 456.667,197.5 456,196.5C 442.847,203.656 435.181,214.656 433,229.5C 430.837,230.768 428.67,230.768 426.5,229.5C 424.891,228.335 424.557,227.001 425.5,225.5C 429.907,207.925 440.74,196.258 458,190.5C 458.84,185.887 458.34,181.554 456.5,177.5C 456.5,177.167 456.5,176.833 456.5,176.5C 453.306,168.496 447.306,163.996 438.5,163C 428.372,161.958 418.372,162.625 408.5,165C 359.414,178.446 317.248,203.279 282,239.5C 278.469,243.397 275.303,247.564 272.5,252C 274.495,252.613 276.162,252.113 277.5,250.5C 297.34,247.866 317.007,244.866 336.5,241.5C 342.621,241.526 347.288,240.86 350.5,239.5C 351.568,238.566 352.901,238.232 354.5,238.5C 355.449,239.152 356.615,239.486 358,239.5C 363.851,238.862 369.684,238.196 375.5,237.5C 378.063,236.8 380.563,235.8 383,234.5C 383.902,234.743 384.735,235.077 385.5,235.5C 386.404,236.209 386.737,237.209 386.5,238.5C 379.827,259.682 372.161,280.516 363.5,301C 363.836,302.03 364.503,302.53 365.5,302.5C 366.806,303.467 367.473,304.801 367.5,306.5C 364.635,306.055 362.135,306.722 360,308.5C 352.936,322.294 345.602,335.961 338,349.5C 332.924,357.247 327.091,364.413 320.5,371C 312.842,377.997 303.842,380.997 293.5,380C 291.308,379.074 289.308,377.907 287.5,376.5C 285.926,374.898 285.259,372.898 285.5,370.5C 284.929,362.047 287.096,354.381 292,347.5C 298.696,338.305 306.529,330.305 315.5,323.5C 321.662,319.584 327.995,315.917 334.5,312.5C 339.934,309.785 345.601,307.619 351.5,306C 355.757,299.651 359.091,292.818 361.5,285.5C 361.877,283.742 362.544,282.075 363.5,280.5C 362.998,279.479 362.332,279.312 361.5,280C 350.707,294.463 337.707,306.463 322.5,316C 307.826,324.135 292.159,327.135 275.5,325C 271.714,323.607 268.048,321.941 264.5,320C 261.964,317.295 259.297,314.795 256.5,312.5C 256.34,310.847 255.674,309.514 254.5,308.5C 252.747,305.854 251.747,302.854 251.5,299.5C 249.779,287.219 251.779,275.552 257.5,264.5C 257.043,263.702 256.376,263.369 255.5,263.5C 257.042,262.859 258.376,261.859 259.5,260.5C 255.363,259.366 251.363,259.866 247.5,262C 197.777,295.03 144.777,322.03 88.5,343C 70.315,350.421 51.4816,355.254 32,357.5C 28.0997,357.794 24.5997,356.794 21.5,354.5C 21.5792,353.07 21.2458,351.736 20.5,350.5C 25.2544,342.577 31.5877,336.077 39.5,331C 68.5284,314.989 98.695,301.489 130,290.5C 141.529,262.914 152.862,235.247 164,207.5C 166.967,199.296 169.467,190.963 171.5,182.5C 173.099,182.768 174.432,182.434 175.5,181.5C 177.048,181.821 177.715,182.821 177.5,184.5C 175.936,193.423 173.436,202.089 170,210.5C 159.539,235.385 149.372,260.385 139.5,285.5C 139.439,287.721 140.105,288.054 141.5,286.5C 174.087,275.936 207.087,266.769 240.5,259C 262.69,245.821 282.19,229.321 299,209.5C 304.548,202.416 307.215,194.416 307,185.5C 306.768,184.263 306.268,183.263 305.5,182.5C 305.5,182.167 305.5,181.833 305.5,181.5C 303.503,176.988 300.503,173.155 296.5,170C 285.263,163.857 273.263,160.19 260.5,159C 207.657,155.968 156.657,164.301 107.5,184C 89.7135,191.299 73.8801,201.466 60,214.5C 57.9376,216.901 56.2709,219.567 55,222.5C 54.2109,224.712 54.3775,226.712 55.5,228.5C 57.9497,234.074 62.283,237.241 68.5,238C 78.4553,239.231 88.4553,240.065 98.5,240.5C 99.1667,240.5 99.8333,240.5 100.5,240.5C 92.2312,242.47 83.5645,243.136 74.5,242.5C 64.2799,242.321 55.6133,238.654 48.5,231.5C 47.8902,230.609 47.5569,229.609 47.5,228.5C 47.6889,223.433 49.1889,218.766 52,214.5C 65.9864,200.531 82.1531,189.698 100.5,182C 151.22,161.79 203.887,152.79 258.5,155C 277.933,155.752 295.266,161.919 310.5,173.5 Z M 466.5,198.5 C 467.167,198.833 467.833,199.167 468.5,199.5C 468.5,199.833 468.5,200.167 468.5,200.5C 468.5,200.833 468.5,201.167 468.5,201.5C 467.094,201.027 466.427,200.027 466.5,198.5 Z M 453.5,202.5 C 451.922,204.375 452.255,205.708 454.5,206.5C 454.263,207.791 454.596,208.791 455.5,209.5C 457.142,210.803 458.809,212.136 460.5,213.5C 454.527,220.983 447.527,227.317 439.5,232.5C 438.504,232.586 437.671,232.252 437,231.5C 436.79,229.942 436.29,228.609 435.5,227.5C 437.835,216.485 443.835,208.151 453.5,202.5 Z M 371.5,244.5 C 361.32,266.354 345.987,285.521 325.5,302C 318.192,306.825 310.525,310.992 302.5,314.5C 302.565,314.062 302.399,313.728 302,313.5C 299.791,313.989 297.958,314.989 296.5,316.5C 282.018,319.894 270.352,315.56 261.5,303.5C 261.125,301.302 260.458,299.302 259.5,297.5C 259.43,283.584 263.43,271.084 271.5,260C 304.621,253.388 337.955,248.221 371.5,244.5 Z M 190.5,280.5 C 190.918,281.222 191.584,281.722 192.5,282C 191.244,282.417 190.577,283.25 190.5,284.5C 173.27,294.282 155.604,303.282 137.5,311.5C 135.379,311.675 133.379,311.341 131.5,310.5C 132.985,305.536 135.318,301.036 138.5,297C 155.564,290.589 172.897,285.089 190.5,280.5 Z M 350.5,297.5 C 351.713,298.497 351.546,299.497 350,300.5C 349.536,299.906 349.369,299.239 349.5,298.5C 350.167,298.5 350.5,298.167 350.5,297.5 Z M 347.5,300.5 C 348.506,300.938 348.506,301.604 347.5,302.5C 346.833,302.5 346.167,302.5 345.5,302.5C 345.833,301.5 346.5,300.833 347.5,300.5 Z M 119.5,304.5 C 118.808,308.651 117.808,312.984 116.5,317.5C 116.557,318.609 116.89,319.609 117.5,320.5C 92.333,331.965 66.333,341.298 39.5,348.5C 37.6531,347.427 35.6531,347.427 33.5,348.5C 39.8705,341.804 47.2038,336.304 55.5,332C 76.0523,320.887 97.3856,311.721 119.5,304.5 Z M 342.5,317.5 C 343.506,317.938 343.506,318.604 342.5,319.5C 341.508,319.672 340.842,319.338 340.5,318.5C 341.167,318.167 341.833,317.833 342.5,317.5 Z M 338.5,319.5 C 339.71,319.932 340.71,320.599 341.5,321.5C 334.99,333.523 327.823,345.19 320,356.5C 314.98,362.86 308.813,367.693 301.5,371C 298.779,371.602 296.113,371.435 293.5,370.5C 294.363,362.435 297.196,355.102 302,348.5C 312.103,336.057 324.27,326.39 338.5,319.5 Z M 303.5,328.5 C 302.833,328.5 302.5,328.833 302.5,329.5C 301.833,329.5 301.5,329.167 301.5,328.5C 302.167,327.167 302.833,327.167 303.5,328.5 Z" />
  </g>
  <g>
    <path style="opacity:1" fill="#24e5e7"
      d="M 462.5,171.5 C 458.747,165.596 453.414,161.763 446.5,160C 436.218,158.464 425.885,158.13 415.5,159C 378.411,167.518 344.411,182.685 313.5,204.5C 314.167,202.167 314.833,199.833 315.5,197.5C 316.167,197.5 316.5,197.167 316.5,196.5C 317.167,196.5 317.5,196.167 317.5,195.5C 348.078,176.278 380.578,162.278 415,153.5C 423.06,153.496 431.227,153.663 439.5,154C 450.207,155.348 458.207,160.682 463.5,170C 462.944,170.383 462.611,170.883 462.5,171.5 Z" />
  </g>
  <g>
    <path style="opacity:0.973" fill="#df2ae2"
      d="M 305.5,181.5 C 305.167,181.5 304.833,181.5 304.5,181.5C 300.549,175.733 295.216,171.566 288.5,169C 276.894,164.676 264.894,162.176 252.5,161.5C 203.21,160.523 155.543,169.023 109.5,187C 90.6892,194.477 74.1892,205.311 60,219.5C 57.7132,222.072 56.5465,225.072 56.5,228.5C 56.1667,228.5 55.8333,228.5 55.5,228.5C 54.3775,226.712 54.2109,224.712 55,222.5C 56.2709,219.567 57.9376,216.901 60,214.5C 73.8801,201.466 89.7135,191.299 107.5,184C 156.657,164.301 207.657,155.968 260.5,159C 273.263,160.19 285.263,163.857 296.5,170C 300.503,173.155 303.503,176.988 305.5,181.5 Z" />
  </g>
  <g>
    <path style="opacity:0.991" fill="#e626e9"
      d="M 456.5,176.5 C 449.842,168.599 441.176,164.932 430.5,165.5C 414.962,166.641 399.962,170.141 385.5,176C 355.149,187.665 327.482,203.665 302.5,224C 296.27,230.062 290.27,236.229 284.5,242.5C 283.5,242.833 282.833,243.5 282.5,244.5C 281.833,244.5 281.5,244.833 281.5,245.5C 279.937,246.945 278.604,248.611 277.5,250.5C 276.162,252.113 274.495,252.613 272.5,252C 275.303,247.564 278.469,243.397 282,239.5C 317.248,203.279 359.414,178.446 408.5,165C 418.372,162.625 428.372,161.958 438.5,163C 447.306,163.996 453.306,168.496 456.5,176.5 Z" />
  </g>
  <g>
    <path style="opacity:0.686" fill="#0e5262" d="M 175.5,178.5 C 173.5,178.5 171.5,178.5 169.5,178.5C 171.594,176.006 173.594,176.006 175.5,178.5 Z" />
  </g>
  <g>
    <path style="opacity:1" fill="#23e3e5"
      d="M 169.5,178.5 C 171.5,178.5 173.5,178.5 175.5,178.5C 175.5,179.5 175.5,180.5 175.5,181.5C 174.432,182.434 173.099,182.768 171.5,182.5C 169.467,190.963 166.967,199.296 164,207.5C 152.862,235.247 141.529,262.914 130,290.5C 98.695,301.489 68.5284,314.989 39.5,331C 31.5877,336.077 25.2544,342.577 20.5,350.5C 21.2458,351.736 21.5792,353.07 21.5,354.5C 17.6149,351.476 16.7816,347.809 19,343.5C 22.12,338.046 26.2866,333.546 31.5,330C 40.0739,324.812 48.7405,319.812 57.5,315C 80.883,304.72 104.383,294.887 128,285.5C 143.014,250.163 156.848,214.496 169.5,178.5 Z" />
  </g>
  <g>
    <path style="opacity:1" fill="#1ee5e7"
      d="M 305.5,182.5 C 306.268,183.263 306.768,184.263 307,185.5C 307.215,194.416 304.548,202.416 299,209.5C 282.19,229.321 262.69,245.821 240.5,259C 207.087,266.769 174.087,275.936 141.5,286.5C 141.893,284.716 142.559,283.05 143.5,281.5C 145.284,281.107 146.95,280.441 148.5,279.5C 161.718,275.26 174.885,270.927 188,266.5C 190.398,266.935 192.731,266.269 195,264.5C 197.398,264.935 199.731,264.269 202,262.5C 203.343,263.214 204.676,262.88 206,261.5C 206.333,261.833 206.667,262.167 207,262.5C 211.689,260.345 216.689,258.679 222,257.5C 222.414,257.957 222.914,258.291 223.5,258.5C 228.303,256.936 233.137,255.269 238,253.5C 257.764,242.145 275.764,227.811 292,210.5C 297.667,204.004 301.834,196.671 304.5,188.5C 305.461,186.735 305.795,184.735 305.5,182.5 Z" />
  </g>
  <g>
    <path style="opacity:0.055" fill="#0b424e"
      d="M 304.5,181.5 C 304.833,181.5 305.167,181.5 305.5,181.5C 305.5,181.833 305.5,182.167 305.5,182.5C 305.795,184.735 305.461,186.735 304.5,188.5C 303.933,186.302 303.933,183.969 304.5,181.5 Z" />
  </g>
  <g>
    <path style="opacity:1" fill="#cc77e4"
      d="M 464.5,178.5 C 465.612,180.599 466.279,182.933 466.5,185.5C 466.5,187.167 466.5,188.833 466.5,190.5C 464.577,186.971 463.911,182.971 464.5,178.5 Z" />
  </g>
  <g>
    <path style="opacity:1" fill="#32d7d9"
      d="M 466.5,185.5 C 474.182,185.848 478.182,189.848 478.5,197.5C 476.156,192.651 472.156,190.317 466.5,190.5C 466.5,188.833 466.5,187.167 466.5,185.5 Z" />
  </g>
  <g>
    <path style="opacity:1" fill="#25dadd"
      d="M 456.5,177.5 C 458.34,181.554 458.84,185.887 458,190.5C 440.74,196.258 429.907,207.925 425.5,225.5C 424.625,221.988 424.292,218.488 424.5,215C 430.846,201.153 441.18,191.653 455.5,186.5C 456.484,183.572 456.817,180.572 456.5,177.5 Z" />
  </g>
  <g>
    <path style="opacity:0.906" fill="#9e3dae"
      d="M 314.5,182.5 C 315.903,186.655 316.903,190.988 317.5,195.5C 316.833,195.5 316.5,195.833 316.5,196.5C 316.167,196.5 315.833,196.5 315.5,196.5C 315.784,194.585 315.451,192.919 314.5,191.5C 314.5,188.5 314.5,185.5 314.5,182.5 Z" />
  </g>
  <g>
    <path style="opacity:1" fill="#e125e5"
      d="M 453.5,202.5 C 443.835,208.151 437.835,216.485 435.5,227.5C 435.5,228.5 435.5,229.5 435.5,230.5C 434.662,230.842 434.328,231.508 434.5,232.5C 433.833,232.5 433.5,232.833 433.5,233.5C 431.55,234.498 429.55,234.332 427.5,233C 426.663,231.989 426.33,230.822 426.5,229.5C 428.67,230.768 430.837,230.768 433,229.5C 435.181,214.656 442.847,203.656 456,196.5C 456.667,197.5 456.667,198.5 456,199.5C 454.955,200.373 454.122,201.373 453.5,202.5 Z" />
  </g>
  <g>
    <path style="opacity:0.958" fill="#e829eb"
      d="M 468.5,199.5 C 467.833,199.167 467.167,198.833 466.5,198.5C 465.624,198.369 464.957,198.702 464.5,199.5C 463.608,202.284 462.442,204.95 461,207.5C 459.556,209.155 457.722,209.822 455.5,209.5C 454.596,208.791 454.263,207.791 454.5,206.5C 456.484,206.617 458.15,205.95 459.5,204.5C 461.162,201.192 462.829,197.858 464.5,194.5C 466.258,195.128 467.758,196.128 469,197.5C 469.692,198.437 469.525,199.103 468.5,199.5 Z" />
  </g>
  <g>
    <path style="opacity:1" fill="#2ce9eb"
      d="M 468.5,200.5 C 469.695,200.866 470.361,201.699 470.5,203C 462.271,222.285 448.271,235.452 428.5,242.5C 428.047,241.542 427.381,240.708 426.5,240C 427.066,239.005 427.733,238.172 428.5,237.5C 429.71,237.068 430.71,236.401 431.5,235.5C 431.833,235.5 432.167,235.5 432.5,235.5C 435.241,235.293 437.574,234.293 439.5,232.5C 447.527,227.317 454.527,220.983 460.5,213.5C 461.167,213.5 461.5,213.167 461.5,212.5C 464.568,209.378 466.902,205.711 468.5,201.5C 468.5,201.167 468.5,200.833 468.5,200.5 Z" />
  </g>
  <g>
    <path style="opacity:1" fill="#f141fd"
      d="M 314.5,191.5 C 315.451,192.919 315.784,194.585 315.5,196.5C 315.5,196.833 315.5,197.167 315.5,197.5C 314.833,199.833 314.167,202.167 313.5,204.5C 312.518,205.141 311.518,205.807 310.5,206.5C 310.167,206.167 309.833,205.833 309.5,205.5C 312.312,201.216 313.979,196.549 314.5,191.5 Z" />
  </g>
  <g>
    <path style="opacity:0.075" fill="#081124"
      d="M 466.5,198.5 C 466.427,200.027 467.094,201.027 468.5,201.5C 466.902,205.711 464.568,209.378 461.5,212.5C 460.833,212.5 460.5,212.833 460.5,213.5C 458.809,212.136 457.142,210.803 455.5,209.5C 457.722,209.822 459.556,209.155 461,207.5C 462.442,204.95 463.608,202.284 464.5,199.5C 464.957,198.702 465.624,198.369 466.5,198.5 Z" />
  </g>
  <g>
    <path style="opacity:1" fill="#dd24e0"
      d="M 478.5,197.5 C 479.837,199.349 480.503,201.516 480.5,204C 478.873,212.627 475.04,220.127 469,226.5C 463.903,232.105 458.403,237.105 452.5,241.5C 451.391,241.557 450.391,241.89 449.5,242.5C 448.522,242.189 447.855,241.522 447.5,240.5C 457.109,233.726 465.609,225.726 473,216.5C 477.361,210.914 479.195,204.581 478.5,197.5 Z" />
  </g>
  <g>
    <path style="opacity:1" fill="#20dcdf"
      d="M 385.5,232.5 C 385.5,233.5 385.5,234.5 385.5,235.5C 384.735,235.077 383.902,234.743 383,234.5C 380.563,235.8 378.063,236.8 375.5,237.5C 374.551,236.848 373.385,236.514 372,236.5C 366.183,237.373 360.35,238.04 354.5,238.5C 352.901,238.232 351.568,238.566 350.5,239.5C 345.609,239.532 340.943,240.199 336.5,241.5C 317.007,244.866 297.34,247.866 277.5,250.5C 278.604,248.611 279.937,246.945 281.5,245.5C 282.167,245.5 282.833,245.5 283.5,245.5C 285.099,245.768 286.432,245.434 287.5,244.5C 316.641,239.418 345.974,235.585 375.5,233C 377.468,231.456 379.635,230.289 382,229.5C 383.729,229.974 384.895,230.974 385.5,232.5 Z" />
  </g>
  <g>
    <path style="opacity:1" fill="#20cfd2"
      d="M 55.5,228.5 C 55.8333,228.5 56.1667,228.5 56.5,228.5C 60.3319,231.392 64.6653,233.226 69.5,234C 78.479,234.94 87.479,235.607 96.5,236C 100.532,236.461 101.199,237.961 98.5,240.5C 88.4553,240.065 78.4553,239.231 68.5,238C 62.283,237.241 57.9497,234.074 55.5,228.5 Z" />
  </g>
  <g>
    <path style="opacity:0.075" fill="#071725"
      d="M 435.5,227.5 C 436.29,228.609 436.79,229.942 437,231.5C 437.671,232.252 438.504,232.586 439.5,232.5C 437.574,234.293 435.241,235.293 432.5,235.5C 432.918,234.778 433.584,234.278 434.5,234C 434.272,233.601 433.938,233.435 433.5,233.5C 433.5,232.833 433.833,232.5 434.5,232.5C 435.338,232.158 435.672,231.492 435.5,230.5C 435.5,229.5 435.5,228.5 435.5,227.5 Z" />
  </g>
  <g>
    <path style="opacity:0.008" fill="#131d26"
      d="M 385.5,232.5 C 387.28,233.99 387.946,235.99 387.5,238.5C 387.167,238.5 386.833,238.5 386.5,238.5C 386.737,237.209 386.404,236.209 385.5,235.5C 385.5,234.5 385.5,233.5 385.5,232.5 Z" />
  </g>
  <g>
    <path style="opacity:0.106" fill="#041222"
      d="M 431.5,235.5 C 430.71,236.401 429.71,237.068 428.5,237.5C 427.909,236.849 427.243,236.182 426.5,235.5C 426.833,235.167 427.167,234.833 427.5,234.5C 428.736,235.246 430.07,235.579 431.5,235.5 Z" />
  </g>
  <g>
    <path style="opacity:1" fill="#e41ae7"
      d="M 48.5,231.5 C 55.6133,238.654 64.2799,242.321 74.5,242.5C 83.3178,243.493 92.3178,243.827 101.5,243.5C 102.404,244.209 102.737,245.209 102.5,246.5C 90.7942,246.801 79.1275,246.301 67.5,245C 62.4707,243.771 57.8041,241.771 53.5,239C 50.8002,237.143 49.1335,234.643 48.5,231.5 Z" />
  </g>
  <g>
    <path style="opacity:0.196" fill="#264753"
      d="M 375.5,237.5 C 369.684,238.196 363.851,238.862 358,239.5C 356.615,239.486 355.449,239.152 354.5,238.5C 360.35,238.04 366.183,237.373 372,236.5C 373.385,236.514 374.551,236.848 375.5,237.5 Z" />
  </g>
  <g>
    <path style="opacity:0.431" fill="#264b57" d="M 350.5,239.5 C 347.288,240.86 342.621,241.526 336.5,241.5C 340.943,240.199 345.609,239.532 350.5,239.5 Z" />
  </g>
  <g>
    <path style="opacity:0.977" fill="#e428e7"
      d="M 375.5,244.5 C 374.167,244.5 372.833,244.5 371.5,244.5C 337.955,248.221 304.621,253.388 271.5,260C 263.43,271.084 259.43,283.584 259.5,297.5C 257.072,283.356 260.405,269.856 269.5,257C 304.901,249.285 340.568,244.119 376.5,241.5C 375.873,242.417 375.539,243.417 375.5,244.5 Z" />
  </g>
  <g>
    <path style="opacity:1" fill="#e2b8e4"
      d="M 100.5,240.5 C 101.404,241.209 101.737,242.209 101.5,243.5C 92.3178,243.827 83.3178,243.493 74.5,242.5C 83.5645,243.136 92.2312,242.47 100.5,240.5 Z" />
  </g>
  <g>
    <path style="opacity:0.173" fill="#222832"
      d="M 428.5,242.5 C 428.557,243.609 428.89,244.609 429.5,245.5C 429.5,245.833 429.5,246.167 429.5,246.5C 427.481,245.462 427.147,244.128 428.5,242.5 Z" />
  </g>
  <g>
    <path style="opacity:0.012" fill="#0a1622"
      d="M 284.5,242.5 C 284.369,243.376 284.702,244.043 285.5,244.5C 286.429,243.45 287.095,243.45 287.5,244.5C 286.432,245.434 285.099,245.768 283.5,245.5C 283.5,244.833 283.167,244.5 282.5,244.5C 282.833,243.5 283.5,242.833 284.5,242.5 Z" />
  </g>
  <g>
    <path style="opacity:1" fill="#21e2e4"
      d="M 371.5,244.5 C 372.833,244.5 374.167,244.5 375.5,244.5C 364.895,266.954 350.229,286.454 331.5,303C 321.149,312.176 309.149,318.176 295.5,321C 282.803,323.879 272.303,320.379 264,310.5C 262.589,308.35 261.755,306.016 261.5,303.5C 270.352,315.56 282.018,319.894 296.5,316.5C 298.698,316.125 300.698,315.458 302.5,314.5C 310.525,310.992 318.192,306.825 325.5,302C 345.987,285.521 361.32,266.354 371.5,244.5 Z" />
  </g>
  <g>
    <path style="opacity:1" fill="#28c0c7"
      d="M 452.5,241.5 C 455.741,243.983 457.408,247.316 457.5,251.5C 455.547,247.88 452.881,244.88 449.5,242.5C 450.391,241.89 451.391,241.557 452.5,241.5 Z" />
  </g>
  <g>
    <path style="opacity:1" fill="#ea22ec"
      d="M 429.5,245.5 C 438.347,243.256 444.347,246.256 447.5,254.5C 445.329,252.5 442.996,250.666 440.5,249C 436.367,249.094 432.701,248.26 429.5,246.5C 429.5,246.167 429.5,245.833 429.5,245.5 Z" />
  </g>
  <g>
    <path style="opacity:1" fill="#ff4eff"
      d="M 266.5,247.5 C 267.525,247.897 267.692,248.563 267,249.5C 265.142,252.412 262.642,253.912 259.5,254C 261.729,251.6 264.063,249.433 266.5,247.5 Z" />
  </g>
  <g>
    <path style="opacity:0.999" fill="#e922eb"
      d="M 255.5,263.5 C 255.167,263.5 254.833,263.5 254.5,263.5C 254.167,263.5 253.833,263.5 253.5,263.5C 252.508,263.328 251.842,263.662 251.5,264.5C 226.255,279.877 200.589,294.711 174.5,309C 132.924,330.525 89.5902,347.525 44.5,360C 38.3433,361.119 32.3433,361.119 26.5,360C 24.1558,359.163 22.1558,357.829 20.5,356C 21.056,355.617 21.3893,355.117 21.5,354.5C 24.5997,356.794 28.0997,357.794 32,357.5C 51.4816,355.254 70.315,350.421 88.5,343C 144.777,322.03 197.777,295.03 247.5,262C 251.363,259.866 255.363,259.366 259.5,260.5C 258.376,261.859 257.042,262.859 255.5,263.5 Z" />
  </g>
  <g>
    <path style="opacity:1" fill="#36dadd"
      d="M 254.5,263.5 C 254.833,263.5 255.167,263.5 255.5,263.5C 256.376,263.369 257.043,263.702 257.5,264.5C 251.779,275.552 249.779,287.219 251.5,299.5C 250.069,293.495 249.069,287.329 248.5,281C 250.219,276.624 251.553,272.124 252.5,267.5C 253.338,267.158 253.672,266.492 253.5,265.5C 253.5,265.167 253.5,264.833 253.5,264.5C 254.167,264.5 254.5,264.167 254.5,263.5 Z" />
  </g>
  <g>
    <path style="opacity:1" fill="#26dcde"
      d="M 416.5,267.5 C 415.833,267.5 415.5,267.833 415.5,268.5C 413.692,268.491 412.025,268.991 410.5,270C 401.163,279.161 396.163,290.328 395.5,303.5C 393.597,288.736 398.264,275.903 409.5,265C 411.81,264.503 414.143,264.337 416.5,264.5C 416.5,265.5 416.5,266.5 416.5,267.5 Z" />
  </g>
  <g>
    <path style="opacity:1" fill="#e026e4"
      d="M 177.5,184.5 C 178.156,185.622 178.489,186.955 178.5,188.5C 177.651,193.898 176.484,199.231 175,204.5C 164.821,229.521 154.654,254.521 144.5,279.5C 143.833,279.5 143.5,279.833 143.5,280.5C 143.5,280.833 143.5,281.167 143.5,281.5C 142.559,283.05 141.893,284.716 141.5,286.5C 140.105,288.054 139.439,287.721 139.5,285.5C 149.372,260.385 159.539,235.385 170,210.5C 173.436,202.089 175.936,193.423 177.5,184.5 Z" />
  </g>
  <g>
    <path style="opacity:0.016" fill="#1c1230"
      d="M 253.5,263.5 C 253.5,263.833 253.5,264.167 253.5,264.5C 252.167,264.833 252.167,265.167 253.5,265.5C 253.672,266.492 253.338,267.158 252.5,267.5C 251.596,266.791 251.263,265.791 251.5,264.5C 251.842,263.662 252.508,263.328 253.5,263.5 Z" />
  </g>
  <g>
    <path style="opacity:0.97" fill="#ec27ef"
      d="M 222.5,271.5 C 216.044,272.697 209.711,274.364 203.5,276.5C 202.508,276.328 201.842,276.662 201.5,277.5C 200.833,277.5 200.167,277.5 199.5,277.5C 197.214,277.595 195.214,278.262 193.5,279.5C 192.508,279.328 191.842,279.662 191.5,280.5C 191.167,280.5 190.833,280.5 190.5,280.5C 172.897,285.089 155.564,290.589 138.5,297C 135.318,301.036 132.985,305.536 131.5,310.5C 130.833,310.5 130.5,310.833 130.5,311.5C 129.833,312.833 129.167,314.167 128.5,315.5C 127.227,317.713 126.227,320.046 125.5,322.5C 124.357,319.932 124.524,317.265 126,314.5C 129.388,307.557 132.888,300.724 136.5,294C 166.611,282.809 197.278,273.809 228.5,267C 226.611,268.764 224.611,270.264 222.5,271.5 Z" />
  </g>
  <g>
    <path style="opacity:0.02" fill="#111429"
      d="M 415.5,268.5 C 415.5,267.833 415.833,267.5 416.5,267.5C 418.104,268.287 418.771,269.62 418.5,271.5C 417.833,271.5 417.167,271.5 416.5,271.5C 417.815,270.105 417.481,269.105 415.5,268.5 Z" />
  </g>
  <g>
    <path style="opacity:1" fill="#dd28e1"
      d="M 386.5,238.5 C 386.833,238.5 387.167,238.5 387.5,238.5C 387.808,243.371 386.975,248.037 385,252.5C 378.761,269.304 372.261,285.97 365.5,302.5C 364.503,302.53 363.836,302.03 363.5,301C 372.161,280.516 379.827,259.682 386.5,238.5 Z" />
  </g>
  <g>
    <path style="opacity:1" fill="#26ecee"
      d="M 222.5,271.5 C 191.533,290.82 159.199,307.82 125.5,322.5C 126.227,320.046 127.227,317.713 128.5,315.5C 131.744,314.537 134.744,313.204 137.5,311.5C 155.604,303.282 173.27,294.282 190.5,284.5C 194.173,283 197.506,281 200.5,278.5C 201.167,278.5 201.5,278.167 201.5,277.5C 202.492,277.672 203.158,277.338 203.5,276.5C 209.711,274.364 216.044,272.697 222.5,271.5 Z" />
  </g>
  <g>
    <path style="opacity:1" fill="#27e2e4"
      d="M 448.5,259.5 C 450.059,267.486 449.559,275.486 447,283.5C 440.366,300.883 427.866,309.383 409.5,309C 408.29,307.961 407.29,306.794 406.5,305.5C 406.5,304.833 406.5,304.167 406.5,303.5C 410.999,305.803 415.666,306.136 420.5,304.5C 422.967,304.245 424.967,303.245 426.5,301.5C 438.25,294.61 444.917,284.61 446.5,271.5C 448.344,267.783 449.011,263.783 448.5,259.5 Z" />
  </g>
  <g>
    <path style="opacity:0.047" fill="#111a2a"
      d="M 199.5,277.5 C 199.5,278.167 199.833,278.5 200.5,278.5C 197.506,281 194.173,283 190.5,284.5C 190.577,283.25 191.244,282.417 192.5,282C 191.584,281.722 190.918,281.222 190.5,280.5C 190.833,280.5 191.167,280.5 191.5,280.5C 192.492,280.672 193.158,280.338 193.5,279.5C 195.214,278.262 197.214,277.595 199.5,277.5 Z" />
  </g>
  <g>
    <path style="opacity:0.067" fill="#03162e"
      d="M 148.5,279.5 C 146.95,280.441 145.284,281.107 143.5,281.5C 143.5,281.167 143.5,280.833 143.5,280.5C 144.167,280.5 144.5,280.167 144.5,279.5C 145.961,278.314 147.295,278.314 148.5,279.5 Z" />
  </g>
  <g>
    <path style="opacity:0.996" fill="#eb2df1"
      d="M 361.5,285.5 C 358.781,287.219 356.781,289.553 355.5,292.5C 354.833,292.5 354.5,292.833 354.5,293.5C 353.833,293.5 353.5,293.833 353.5,294.5C 352.167,295.167 351.167,296.167 350.5,297.5C 350.5,298.167 350.167,298.5 349.5,298.5C 348.5,298.833 347.833,299.5 347.5,300.5C 346.5,300.833 345.833,301.5 345.5,302.5C 344.833,302.5 344.5,302.833 344.5,303.5C 341.126,306.51 337.792,309.51 334.5,312.5C 327.995,315.917 321.662,319.584 315.5,323.5C 311.136,324.396 307.136,326.063 303.5,328.5C 302.833,327.167 302.167,327.167 301.5,328.5C 300.833,328.5 300.167,328.5 299.5,328.5C 282.779,332.117 268.612,327.784 257,315.5C 256.517,314.552 256.351,313.552 256.5,312.5C 259.297,314.795 261.964,317.295 264.5,320C 268.048,321.941 271.714,323.607 275.5,325C 292.159,327.135 307.826,324.135 322.5,316C 337.707,306.463 350.707,294.463 361.5,280C 362.332,279.312 362.998,279.479 363.5,280.5C 362.544,282.075 361.877,283.742 361.5,285.5 Z" />
  </g>
  <g>
    <path style="opacity:1" fill="#de25e2"
      d="M 459.5,259.5 C 463.185,277.633 458.185,293.467 444.5,307C 431.748,317.684 417.415,320.684 401.5,316C 398.71,314.254 397.043,311.754 396.5,308.5C 398.296,309.793 399.963,311.293 401.5,313C 409.811,314.924 418.144,314.924 426.5,313C 449.945,303.017 460.945,285.183 459.5,259.5 Z" />
  </g>
  <g>
    <path style="opacity:1" fill="#d937df"
      d="M 416.5,271.5 C 417.167,271.5 417.833,271.5 418.5,271.5C 418.509,273.308 418.009,274.975 417,276.5C 410.071,284.113 406.571,293.113 406.5,303.5C 406.5,304.167 406.5,304.833 406.5,305.5C 405.163,303.651 404.497,301.484 404.5,299C 405.923,288.659 409.923,279.492 416.5,271.5 Z" />
  </g>
  <g>
    <path style="opacity:0.984" fill="#2febee"
      d="M 361.5,285.5 C 359.091,292.818 355.757,299.651 351.5,306C 345.601,307.619 339.934,309.785 334.5,312.5C 337.792,309.51 341.126,306.51 344.5,303.5C 345.167,303.5 345.5,303.167 345.5,302.5C 346.167,302.5 346.833,302.5 347.5,302.5C 351.377,301.773 353.71,299.439 354.5,295.5C 354.5,294.833 354.167,294.5 353.5,294.5C 353.5,293.833 353.833,293.5 354.5,293.5C 355.167,293.5 355.5,293.167 355.5,292.5C 356.781,289.553 358.781,287.219 361.5,285.5 Z" />
  </g>
  <g>
    <path style="opacity:0.125" fill="#061727"
      d="M 353.5,294.5 C 354.167,294.5 354.5,294.833 354.5,295.5C 353.71,299.439 351.377,301.773 347.5,302.5C 348.506,301.604 348.506,300.938 347.5,300.5C 347.833,299.5 348.5,298.833 349.5,298.5C 349.369,299.239 349.536,299.906 350,300.5C 351.546,299.497 351.713,298.497 350.5,297.5C 351.167,296.167 352.167,295.167 353.5,294.5 Z" />
  </g>
  <g>
    <path style="opacity:1" fill="#e925ec"
      d="M 125.5,301.5 C 123.716,301.893 122.05,302.559 120.5,303.5C 119.833,303.5 119.5,303.833 119.5,304.5C 97.3856,311.721 76.0523,320.887 55.5,332C 47.2038,336.304 39.8705,341.804 33.5,348.5C 32.8333,348.5 32.5,348.833 32.5,349.5C 31.5987,350.29 30.9321,351.29 30.5,352.5C 29.5222,352.189 28.8555,351.522 28.5,350.5C 31.9741,343.859 36.9741,338.692 43.5,335C 69.6983,320.068 97.0317,307.568 125.5,297.5C 126.626,298.808 126.626,300.142 125.5,301.5 Z" />
  </g>
  <g>
    <path style="opacity:1" fill="#26e4e6"
      d="M 125.5,301.5 C 123.955,307.577 121.622,313.244 118.5,318.5C 117.833,318.167 117.167,317.833 116.5,317.5C 117.808,312.984 118.808,308.651 119.5,304.5C 120.167,304.5 120.5,304.167 120.5,303.5C 122.05,302.559 123.716,301.893 125.5,301.5 Z" />
  </g>
  <g>
    <path style="opacity:0.776" fill="#135565" d="M 426.5,301.5 C 424.967,303.245 422.967,304.245 420.5,304.5C 422.033,302.755 424.033,301.755 426.5,301.5 Z" />
  </g>
  <g>
    <path style="opacity:0.631" fill="#982fa0" d="M 254.5,308.5 C 255.674,309.514 256.34,310.847 256.5,312.5C 254.896,311.713 254.229,310.38 254.5,308.5 Z" />
  </g>
  <g>
    <path style="opacity:1" fill="#e226e6"
      d="M 348.5,314.5 C 346.25,315.13 344.25,316.13 342.5,317.5C 341.833,317.833 341.167,318.167 340.5,318.5C 339.508,318.328 338.842,318.662 338.5,319.5C 324.27,326.39 312.103,336.057 302,348.5C 297.196,355.102 294.363,362.435 293.5,370.5C 293.5,370.833 293.5,371.167 293.5,371.5C 292.355,367.689 292.188,363.689 293,359.5C 299.889,344.938 310.055,333.104 323.5,324C 331.545,318.477 340.211,314.311 349.5,311.5C 349.737,312.791 349.404,313.791 348.5,314.5 Z" />
  </g>
  <g>
    <path style="opacity:0.11" fill="#051824"
      d="M 131.5,310.5 C 133.379,311.341 135.379,311.675 137.5,311.5C 134.744,313.204 131.744,314.537 128.5,315.5C 129.167,314.167 129.833,312.833 130.5,311.5C 131.167,311.5 131.5,311.167 131.5,310.5 Z" />
  </g>
  <g>
    <path style="opacity:0.557" fill="#134247"
      d="M 302.5,314.5 C 300.698,315.458 298.698,316.125 296.5,316.5C 297.958,314.989 299.791,313.989 302,313.5C 302.399,313.728 302.565,314.062 302.5,314.5 Z" />
  </g>
  <g>
    <path style="opacity:1" fill="#22dfe1"
      d="M 348.5,314.5 C 341.12,330.703 332.287,346.036 322,360.5C 317.041,366.465 311.208,371.298 304.5,375C 299.298,377.959 295.632,376.793 293.5,371.5C 293.5,371.167 293.5,370.833 293.5,370.5C 296.113,371.435 298.779,371.602 301.5,371C 308.813,367.693 314.98,362.86 320,356.5C 327.823,345.19 334.99,333.523 341.5,321.5C 342.338,321.158 342.672,320.492 342.5,319.5C 343.506,318.604 343.506,317.938 342.5,317.5C 344.25,316.13 346.25,315.13 348.5,314.5 Z" />
  </g>
  <g>
    <path style="opacity:0.01" fill="#0c161f"
      d="M 116.5,317.5 C 117.167,317.833 117.833,318.167 118.5,318.5C 118.5,319.167 118.5,319.833 118.5,320.5C 118.167,320.5 117.833,320.5 117.5,320.5C 116.89,319.609 116.557,318.609 116.5,317.5 Z" />
  </g>
  <g>
    <path style="opacity:0.024" fill="#0a122d"
      d="M 338.5,319.5 C 338.842,318.662 339.508,318.328 340.5,318.5C 340.842,319.338 341.508,319.672 342.5,319.5C 342.672,320.492 342.338,321.158 341.5,321.5C 340.71,320.599 339.71,319.932 338.5,319.5 Z" />
  </g>
  <g>
    <path style="opacity:1" fill="#1be4e6"
      d="M 117.5,320.5 C 117.833,320.5 118.167,320.5 118.5,320.5C 118.833,321.167 119.167,321.833 119.5,322.5C 119.5,323.167 119.5,323.833 119.5,324.5C 94.0478,337.042 67.3811,346.542 39.5,353C 36.3035,353.805 33.3035,353.638 30.5,352.5C 30.9321,351.29 31.5987,350.29 32.5,349.5C 34.861,349.326 37.1944,348.993 39.5,348.5C 66.333,341.298 92.333,331.965 117.5,320.5 Z" />
  </g>
  <g>
    <path style="opacity:1" fill="#ee49ff" d="M 119.5,322.5 C 123.289,322.737 123.289,323.404 119.5,324.5C 119.5,323.833 119.5,323.167 119.5,322.5 Z" />
  </g>
  <g>
    <path style="opacity:1" fill="#28dadd"
      d="M 315.5,323.5 C 306.529,330.305 298.696,338.305 292,347.5C 287.096,354.381 284.929,362.047 285.5,370.5C 283.642,365.804 282.976,360.97 283.5,356C 287.039,346.958 292.373,339.125 299.5,332.5C 300.833,331.833 301.833,330.833 302.5,329.5C 302.5,328.833 302.833,328.5 303.5,328.5C 307.136,326.063 311.136,324.396 315.5,323.5 Z" />
  </g>
  <g>
    <path style="opacity:0.125" fill="#031524"
      d="M 299.5,328.5 C 300.167,328.5 300.833,328.5 301.5,328.5C 301.5,329.167 301.833,329.5 302.5,329.5C 301.833,330.833 300.833,331.833 299.5,332.5C 300.405,331.036 300.405,329.702 299.5,328.5 Z" />
  </g>
  <g>
    <path style="opacity:1" fill="#e321e6"
      d="M 367.5,306.5 C 368.774,307.189 368.774,308.023 367.5,309C 364.421,309.619 361.921,311.119 360,313.5C 352.616,329.939 343.95,345.606 334,360.5C 327.749,368.753 320.249,375.586 311.5,381C 304.918,383.772 298.251,384.105 291.5,382C 289.536,380.549 288.203,378.716 287.5,376.5C 289.308,377.907 291.308,379.074 293.5,380C 303.842,380.997 312.842,377.997 320.5,371C 327.091,364.413 332.924,357.247 338,349.5C 345.602,335.961 352.936,322.294 360,308.5C 362.135,306.722 364.635,306.055 367.5,306.5 Z" />
  </g>
  <g>
    <path style="opacity:0.118" fill="#05192b"
      d="M 39.5,348.5 C 37.1944,348.993 34.861,349.326 32.5,349.5C 32.5,348.833 32.8333,348.5 33.5,348.5C 35.6531,347.427 37.6531,347.427 39.5,348.5 Z" />
  </g>
</svg>